<svg xmlns="http://www.w3.org/2000/svg" version="1.1" xmlns:xlink="http://www.w3.org/1999/xlink" viewBox="0 0 7.60198098407336 8.26564999686871"><g transform="matrix(1,0,0,1,0.6604570447710549,6.650020538304551)"><rect width="8.26564999686871" height="8.26564999686871" x="-0.99229155116873" y="-6.650020538304551" fill="#202020"></rect><g clip-path="url(#SvgjsClipPath1002)"><path d=" M 0.4207517004988772 -5.989563493533495 L 5.860315194032372 -5.989563493533495 L 5.860315194032372 -0.5499999999999998 L 0.4207517004988772 -0.5499999999999998 Z M 0.5295429703695471 -5.8807722236628255 L 0.5295429703695471 -0.6587912698706697 L 5.751523924161702 -0.6587912698706697 L 5.751523924161702 -5.8807722236628255 Z" fill="#1192dc" transform="matrix(1,0,0,1,0,0)" fill-rule="nonzero"></path><g clip-path="url(#SvgjsClipPath1000f412c750-fbd6-47e8-b615-e1eaf1b3f38f)"><path d=" M 4.94675181947872 -3.0577945892756104 C 4.972863950229918 -3.0045096802958913 5.017108102141041 -2.943561478503836 5.070682278614575 -2.860133060049593 C 5.16364274972215 -2.7153615667164988 5.214048758406282 -2.6853466205725582 5.154914217884972 -2.6345641049917154 C 5.144289376921675 -2.6254315169727005 5.042710571117425 -2.5675642435671517 4.9968272367413515 -2.548513912903053 C 4.936333598153864 -2.5233660071312367 4.923132899031355 -2.5246700066271637 4.921493716566404 -2.4186511743702317 C 4.925336841841373 -2.360384436330365 4.964328263388618 -2.297250657918376 4.968171388663588 -2.2390252438061977 C 4.973630738665905 -2.1561937265296685 4.86244182390047 -2.1471942933887584 4.85986596574126 -2.1079411536328236 C 4.855999882728687 -2.0489259933470567 5.01230534343421 -2.0623930022257744 4.914904845873952 -1.979942583393476 C 4.869567905652863 -1.941552654571467 4.8674006952230116 -1.8440327767756672 4.867005822136216 -1.7393454932997852 C 4.866115061917167 -1.5044648798695786 4.681048147540901 -1.5813962585817887 4.462095612460601 -1.5776220065196318 C 4.390761330176334 -1.5763868802365177 4.324275722074107 -1.572112149494587 4.2623127882799405 -1.5651146310727757 C 4.067217934118091 -1.5431165269002767 3.974969152876251 -1.4264498959424436 3.9245906934772443 -1.3194668387061244 L 2.7485300776711803 -1.3194668387061244 C 2.752662470439966 -1.9480496943134984 2.5619204033279015 -2.168076651513684 2.4073184067526214 -2.340314782116632 C 2.3710233546500836 -2.380247819522984 2.3381067264586344 -2.423125594098503 2.3089077687377726 -2.4685061973518567 C 2.2638176900072926 -2.5474508290376807 2.2244838086805303 -2.629546668423697 2.1912126311352633 -2.7141539897185036 L 2.6200264372045363 -2.7141539897185036 L 2.6200264372045363 -3.608670094639745 L 2.118721278875734 -3.608670094639745 C 2.1485449784724224 -3.732824873806441 2.1951983233547274 -3.852320774027662 2.2573860140060695 -3.963840070021754 L 2.7581310035373234 -3.963840070021754 L 2.7581310035373234 -4.4912619506492755 C 2.946938921081457 -4.611494909718709 3.16075235782136 -4.6869364874084045 3.3832059168387487 -4.711812344266841 L 3.3832059168387487 -4.560612684404526 L 3.6857659407266086 -4.560612684404526 L 3.6857659407266086 -4.712165893425947 C 3.8811087384545853 -4.69137536625144 4.0790962675545845 -4.6291415311535395 4.270095461327816 -4.5179434332930635 C 4.681727696573988 -4.278347300558923 4.844392450595921 -3.7703843983248566 4.811971533551043 -3.4203431815236605 C 4.80000136916413 -3.291137034286324 4.86698286439861 -3.2203904700847277 4.946738044836156 -3.0577991808231304 Z M 1.6531934588295667 -2.3294098567545634 L 1.95577644045503 -2.3294098567545634 L 1.95577644045503 -2.0268590159617452 L 1.6531934588295667 -2.0268590159617452 L 1.6531934588295667 -2.3294098567545634 Z M 1.6794892514816018 -5.147743048993466 L 1.8768018230960324 -5.147743048993466 L 1.8768018230960324 -4.950435068926557 L 1.6794846599340807 -4.950435068926557 L 1.6794846599340807 -5.147743048993466 Z M 1.1006925456430432 -3.3455606470512183 L 1.2980097088049949 -3.3455606470512183 L 1.2980097088049949 -3.1482572585318285 L 1.1006925456430432 -3.1482572585318285 L 1.1006925456430432 -3.3455606470512183 Z M 1.3440445642492576 -4.443955236541731 L 1.8176030009094295 -4.443955236541731 L 1.8176030009094295 -3.9704151660716436 L 1.3440445642492576 -3.9704151660716436 L 1.3440445642492576 -4.443973602731816 Z M 2.876524056363008 -5.220064513994721 L 3.1790840802508655 -5.220064513994721 L 3.1790840802508655 -4.917509081654384 L 2.876524056363008 -4.917509081654384 L 2.876524056363008 -5.220064513994721 Z M 2.154590448108787 -4.567403583187897 L 2.154590448108787 -4.044306940325036 L 2.677664133234043 -4.044306940325036 L 2.677664133234043 -4.567403583187897 Z M 3.0935619161271046 -3.0101389175564797 L 3.0935619161271046 -2.5891674746528524 L 3.514519584388168 -2.5891674746528524 L 3.514519584388168 -3.0101389175564797 Z M 1.8307486014616872 -3.5034272339138384 L 1.8307486014616872 -2.819383075801852 L 2.514774393383588 -2.819383075801852 L 2.514774393383588 -3.503441008556401 Z M 3.0278017725331767 -3.0758990611504062 L 3.0278017725331767 -2.523434880344051 L 3.5802843195296177 -2.523434880344051 L 3.5802843195296177 -3.07591283579297 Z M 2.862965216533872 -2.2146762673030125 L 2.862965216533872 -2.0034237574152143 L 3.0742085433266295 -2.0034237574152143 L 3.0742085433266295 -2.2146762673030125 Z M 3.040924415347829 -4.108524323951949 L 3.040924415347829 -3.5955153109924463 L 3.553947202949896 -3.5955153109924463 L 3.553947202949896 -4.108538098594513 Z M 3.6785296618337155 -3.3722650874326074 L 3.6785296618337155 -3.1610125775448092 L 3.8897729886264716 -3.1610125775448092 L 3.8897729886264716 -3.3722650874326074 Z M 4.125792305841854 -4.095750638748882 L 4.125792305841854 -3.884507311956126 L 4.337031041087089 -3.884507311956126 L 4.337031041087089 -4.095764413391448 Z M 4.099487330094778 -2.7934591984990083 L 4.099487330094778 -2.582206688611212 L 4.3107811639102644 -2.582206688611212 L 4.3107811639102644 -2.79345460695149 Z" fill="#1192dc" transform="matrix(1,0,0,1,0,0)" fill-rule="evenodd"></path></g></g><g><path d=" M 0.11896551724137931 0.07758620689655171 Q 0.11896551724137931 0.04482758620689653 0.1413793103448276 0.024137931034482807 Q 0.16206896551724137 0.0034482758620689724 0.18620689655172412 0 Q 0.23448275862068965 0 0.26206896551724135 0.037931034482758585 L 0.7620689655172413 0.7913793103448276 L 0.7620689655172413 0.05517241379310345 Q 0.7620689655172413 0.02758620689655178 0.7724137931034483 0.017241379310344862 Q 0.7913793103448276 0 0.8094827586206896 0 Q 0.8275862068965517 0 0.8379310344827586 0.0034482758620689724 Q 0.8482758620689655 0.006896551724137945 0.8551724137931034 0.01379310344827589 Q 0.8741379310344828 0.02758620689655178 0.8724137931034482 0.05517241379310345 L 0.8724137931034482 0.8637931034482759 Q 0.8724137931034482 0.9155172413793103 0.8224137931034483 0.9362068965517242 Q 0.8103448275862069 0.9413793103448276 0.7913793103448276 0.9413793103448276 Q 0.75 0.9413793103448276 0.7189655172413792 0.903448275862069 L 0.23103448275862068 0.16034482758620694 L 0.23103448275862068 0.8896551724137931 Q 0.23103448275862068 0.9137931034482758 0.21724137931034482 0.9241379310344827 Q 0.19655172413793104 0.9413793103448276 0.17413793103448275 0.9413793103448276 Q 0.15172413793103448 0.9413793103448276 0.1353448275862069 0.9284482758620689 Q 0.11896551724137931 0.9155172413793103 0.11896551724137931 0.8896551724137931 L 0.11896551724137931 0.07758620689655171 M 1.4017386600889008 0.5431034482758621 Q 1.437945556640625 0.5431034482758621 1.474152453192349 0.5448275862068965 L 1.474152453192349 0.4896551724137931 Q 1.474152453192349 0.3551724137931035 1.3241524531923492 0.3551724137931035 Q 1.2569110738820042 0.3551724137931035 1.2258765911233835 0.36724137931034484 Q 1.1707041773302802 0.3879310344827587 1.1465662462957975 0.4025862068965518 Q 1.1224283152613146 0.4172413793103449 1.1086352118130387 0.4172413793103449 Q 1.0948421083647628 0.4172413793103449 1.0827731428475216 0.40689655172413797 Q 1.0707041773302801 0.39655172413793105 1.0707041773302801 0.3793103448275862 Q 1.0707041773302801 0.3655172413793103 1.0862214187095904 0.3517241379310345 Q 1.1672559014682111 0.2741379310344828 1.3258765911233836 0.2741379310344828 Q 1.5086352118130388 0.2741379310344828 1.5603593497440733 0.39655172413793105 Q 1.577600729054418 0.43965517241379315 1.577600729054418 0.496551724137931 L 1.5741524531923492 0.8948275862068965 Q 1.5741524531923492 0.9172413793103448 1.5586352118130389 0.9293103448275862 Q 1.5431179704337286 0.9413793103448276 1.5241524531923492 0.9413793103448276 Q 1.5051869359509698 0.9413793103448276 1.4896696945716594 0.9310344827586207 Q 1.474152453192349 0.9206896551724137 1.474152453192349 0.896551724137931 L 1.474152453192349 0.8344827586206897 Q 1.4327731428475214 0.9241379310344827 1.3258765911233836 0.946551724137931 Q 1.2931179704337286 0.9551724137931035 1.251738660088901 0.9551724137931035 Q 1.2103593497440732 0.9551724137931035 1.169842108364763 0.943103448275862 Q 1.1293248669854525 0.9310344827586207 1.098290384226832 0.9051724137931034 Q 1.034497280778556 0.8517241379310345 1.034497280778556 0.7603448275862069 Q 1.034497280778556 0.5431034482758621 1.4017386600889008 0.5431034482758621 M 1.474152453192349 0.6206896551724138 Q 1.4465662462957973 0.6241379310344828 1.4103593497440734 0.6241379310344828 Q 1.374152453192349 0.6241379310344828 1.3362214187095904 0.625 Q 1.2982903842268319 0.6258620689655172 1.2638076256061423 0.6336206896551724 Q 1.2293248669854526 0.6413793103448275 1.2017386600889008 0.6568965517241379 Q 1.1431179704337284 0.6879310344827586 1.1396696945716596 0.7586206896551724 Q 1.1396696945716596 0.8137931034482758 1.184497280778556 0.8448275862068966 Q 1.2189800393992456 0.8724137931034482 1.2827731428475215 0.8741379310344828 Q 1.3603593497440731 0.8741379310344828 1.4172559014682111 0.8241379310344827 Q 1.4689800393992458 0.7758620689655172 1.474152453192349 0.6793103448275862 L 1.474152453192349 0.6206896551724138 M 1.879290350552263 0.39655172413793105 Q 1.9206696608970906 0.2741379310344828 2.0603248333108835 0.2741379310344828 Q 2.086186902276401 0.2741379310344828 2.0991179367591597 0.2887931034482759 Q 2.112048971241918 0.303448275862069 2.112048971241918 0.31982758620689655 Q 2.112048971241918 0.3362068965517241 2.0991179367591597 0.3508620689655172 Q 2.086186902276401 0.3655172413793103 2.0517041436557113 0.3655172413793103 Q 2.017221385035022 0.3655172413793103 1.9827386264143319 0.3793103448275862 Q 1.9482558677936423 0.3931034482758621 1.9258420746901939 0.4189655172413793 Q 1.879290350552263 0.47586206896551725 1.879290350552263 0.5689655172413793 L 1.879290350552263 0.8931034482758621 Q 1.879290350552263 0.9172413793103448 1.8620489712419181 0.9293103448275862 Q 1.8448075919315734 0.9413793103448276 1.8310144884832975 0.9413793103448276 Q 1.8172213850350216 0.9413793103448276 1.808600695379849 0.9387931034482758 Q 1.7999800057246766 0.9362068965517242 1.7913593160695043 0.9275862068965517 Q 1.775842074690194 0.9172413793103448 1.775842074690194 0.8931034482758621 L 1.775842074690194 0.33793103448275863 Q 1.775842074690194 0.31551724137931036 1.7913593160695043 0.30086206896551726 Q 1.8068765574488146 0.28620689655172415 1.83015241951778 0.28620689655172415 Q 1.8534282815867458 0.28620689655172415 1.8663593160695042 0.30086206896551726 Q 1.879290350552263 0.31551724137931036 1.879290350552263 0.33793103448275863 L 1.879290350552263 0.39655172413793105 M 2.344836004849138 0.39655172413793105 Q 2.3862153151939656 0.2741379310344828 2.5258704876077585 0.2741379310344828 Q 2.551732556573276 0.2741379310344828 2.5646635910560347 0.2887931034482759 Q 2.577594625538793 0.303448275862069 2.577594625538793 0.31982758620689655 Q 2.577594625538793 0.3362068965517241 2.5646635910560347 0.3508620689655172 Q 2.551732556573276 0.3655172413793103 2.5172497979525863 0.3655172413793103 Q 2.482767039331897 0.3655172413793103 2.448284280711207 0.3793103448275862 Q 2.4138015220905173 0.3931034482758621 2.391387728987069 0.4189655172413793 Q 2.344836004849138 0.47586206896551725 2.344836004849138 0.5689655172413793 L 2.344836004849138 0.8931034482758621 Q 2.344836004849138 0.9172413793103448 2.327594625538793 0.9293103448275862 Q 2.3103532462284484 0.9413793103448276 2.2965601427801725 0.9413793103448276 Q 2.2827670393318966 0.9413793103448276 2.274146349676724 0.9387931034482758 Q 2.265525660021552 0.9362068965517242 2.2569049703663793 0.9275862068965517 Q 2.241387728987069 0.9172413793103448 2.241387728987069 0.8931034482758621 L 2.241387728987069 0.33793103448275863 Q 2.241387728987069 0.31551724137931036 2.2569049703663793 0.30086206896551726 Q 2.2724222117456896 0.28620689655172415 2.295698073814655 0.28620689655172415 Q 2.3189739358836206 0.28620689655172415 2.3319049703663794 0.30086206896551726 Q 2.344836004849138 0.31551724137931036 2.344836004849138 0.33793103448275863 L 2.344836004849138 0.39655172413793105 M 3.017278210870151 0.5431034482758621 Q 3.053485107421875 0.5431034482758621 3.089692003973599 0.5448275862068965 L 3.089692003973599 0.4896551724137931 Q 3.089692003973599 0.3551724137931035 2.939692003973599 0.3551724137931035 Q 2.872450624663254 0.3551724137931035 2.8414161419046335 0.36724137931034484 Q 2.78624372811153 0.3879310344827587 2.7621057970770475 0.4025862068965518 Q 2.7379678660425646 0.4172413793103449 2.7241747625942887 0.4172413793103449 Q 2.710381659146013 0.4172413793103449 2.6983126936287714 0.40689655172413797 Q 2.6862437281115303 0.39655172413793105 2.6862437281115303 0.3793103448275862 Q 2.6862437281115303 0.3655172413793103 2.7017609694908407 0.3517241379310345 Q 2.782795452249461 0.2741379310344828 2.9414161419046336 0.2741379310344828 Q 3.124174762594289 0.2741379310344828 3.1758989005253233 0.39655172413793105 Q 3.193140279835668 0.43965517241379315 3.193140279835668 0.496551724137931 L 3.189692003973599 0.8948275862068965 Q 3.189692003973599 0.9172413793103448 3.174174762594289 0.9293103448275862 Q 3.1586575212149786 0.9413793103448276 3.1396920039735994 0.9413793103448276 Q 3.1207264867322198 0.9413793103448276 3.1052092453529094 0.9310344827586207 Q 3.089692003973599 0.9206896551724137 3.089692003973599 0.896551724137931 L 3.089692003973599 0.8344827586206897 Q 3.0483126936287714 0.9241379310344827 2.9414161419046336 0.946551724137931 Q 2.9086575212149786 0.9551724137931035 2.867278210870151 0.9551724137931035 Q 2.825898900525323 0.9551724137931035 2.785381659146013 0.943103448275862 Q 2.7448644177667028 0.9310344827586207 2.713829935008082 0.9051724137931034 Q 2.650036831559806 0.8517241379310345 2.650036831559806 0.7603448275862069 Q 2.650036831559806 0.5431034482758621 3.017278210870151 0.5431034482758621 M 3.089692003973599 0.6206896551724138 Q 3.0621057970770473 0.6241379310344828 3.0258989005253234 0.6241379310344828 Q 2.989692003973599 0.6241379310344828 2.9517609694908407 0.625 Q 2.913829935008082 0.6258620689655172 2.8793471763873923 0.6336206896551724 Q 2.8448644177667024 0.6413793103448275 2.8172782108701506 0.6568965517241379 Q 2.7586575212149786 0.6879310344827586 2.7552092453529093 0.7586206896551724 Q 2.7552092453529093 0.8137931034482758 2.800036831559806 0.8448275862068966 Q 2.834519590180496 0.8724137931034482 2.8983126936287715 0.8741379310344828 Q 2.975898900525323 0.8741379310344828 3.032795452249461 0.8241379310344827 Q 3.084519590180496 0.7758620689655172 3.089692003973599 0.6793103448275862 L 3.089692003973599 0.6206896551724138 M 3.7362092116783403 0.903448275862069 Q 3.7362092116783403 0.9551724137931035 3.613795418574892 0.9551724137931035 Q 3.5224161082300647 0.9551724137931035 3.484485073747306 0.9051724137931034 Q 3.4431057634024786 0.8517241379310345 3.4396574875404093 0.7293103448275862 L 3.4396574875404093 0.36724137931034484 L 3.363795418574892 0.36724137931034484 Q 3.3431057634024786 0.36724137931034484 3.331036797885237 0.35431034482758617 Q 3.3189678323679956 0.3413793103448276 3.3189678323679956 0.3275862068965517 Q 3.3189678323679956 0.3137931034482758 3.3293126599542027 0.30000000000000004 Q 3.3396574875404097 0.28620689655172415 3.363795418574892 0.28620689655172415 L 3.4465540392645475 0.28620689655172415 L 3.4534505909886852 0.09999999999999998 Q 3.4568988668507545 0.07931034482758625 3.472416108230065 0.06810344827586212 Q 3.487933349609375 0.05689655172413799 3.50517472891972 0.05689655172413799 Q 3.5224161082300647 0.05689655172413799 3.534485073747306 0.0672413793103448 Q 3.5465540392645476 0.07758620689655171 3.5465540392645476 0.09999999999999998 L 3.5465540392645476 0.28620689655172415 L 3.665519556505927 0.28620689655172415 Q 3.6862092116783405 0.28620689655172415 3.6974161082300645 0.30000000000000004 Q 3.708623004781789 0.3137931034482758 3.708623004781789 0.3275862068965517 Q 3.708623004781789 0.3448275862068966 3.6974161082300645 0.3560344827586207 Q 3.6862092116783405 0.36724137931034484 3.665519556505927 0.36724137931034484 L 3.5465540392645476 0.36724137931034484 L 3.5465540392645476 0.6724137931034483 Q 3.5465540392645476 0.8 3.5551747289197198 0.8267241379310345 Q 3.5637954185748923 0.853448275862069 3.5827609358162715 0.8637931034482759 Q 3.6017264530576507 0.8741379310344828 3.6293126599542025 0.8741379310344828 L 3.6965540392645475 0.8689655172413793 Q 3.7155195565059267 0.8689655172413793 3.7258643840921337 0.8810344827586207 Q 3.7362092116783403 0.8931034482758621 3.7362092116783403 0.903448275862069 M 3.806896551724138 0.6155172413793104 Q 3.806896551724138 0.5534482758620689 3.8267241379310346 0.49137931034482757 Q 3.8465517241379312 0.42931034482758623 3.8879310344827585 0.3793103448275862 Q 3.9741379310344827 0.2741379310344828 4.132758620689655 0.2741379310344828 Q 4.291379310344827 0.2741379310344828 4.377586206896551 0.3793103448275862 Q 4.458620689655173 0.4793103448275862 4.458620689655173 0.6137931034482759 Q 4.458620689655173 0.75 4.377586206896551 0.8482758620689655 Q 4.291379310344827 0.9551724137931035 4.132758620689655 0.9551724137931035 Q 3.9741379310344827 0.9551724137931035 3.8879310344827585 0.8482758620689655 Q 3.806896551724138 0.7517241379310344 3.806896551724138 0.6155172413793104 M 3.9189655172413795 0.6155172413793104 Q 3.9189655172413795 0.6568965517241379 3.9301724137931036 0.7034482758620689 Q 3.9413793103448276 0.75 3.970689655172414 0.7896551724137931 Q 4.029310344827586 0.8741379310344828 4.132758620689655 0.8741379310344828 Q 4.241379310344827 0.8741379310344828 4.294827586206896 0.7896551724137931 Q 4.344827586206897 0.7103448275862069 4.344827586206897 0.6137931034482759 Q 4.344827586206897 0.5137931034482759 4.294827586206896 0.4413793103448276 Q 4.239655172413793 0.3551724137931035 4.132758620689655 0.3551724137931035 Q 4.029310344827586 0.3551724137931035 3.970689655172414 0.4413793103448276 Q 3.9189655172413795 0.5120689655172415 3.9189655172413795 0.6155172413793104 M 4.718981512661638 0.39655172413793105 Q 4.760360823006465 0.2741379310344828 4.900015995420259 0.2741379310344828 Q 4.925878064385776 0.2741379310344828 4.938809098868535 0.2887931034482759 Q 4.951740133351293 0.303448275862069 4.951740133351293 0.31982758620689655 Q 4.951740133351293 0.3362068965517241 4.938809098868535 0.3508620689655172 Q 4.925878064385776 0.3655172413793103 4.891395305765086 0.3655172413793103 Q 4.856912547144397 0.3655172413793103 4.822429788523707 0.3793103448275862 Q 4.787947029903017 0.3931034482758621 4.765533236799569 0.4189655172413793 Q 4.718981512661638 0.47586206896551725 4.718981512661638 0.5689655172413793 L 4.718981512661638 0.8931034482758621 Q 4.718981512661638 0.9172413793103448 4.701740133351293 0.9293103448275862 Q 4.684498754040948 0.9413793103448276 4.670705650592672 0.9413793103448276 Q 4.656912547144397 0.9413793103448276 4.648291857489224 0.9387931034482758 Q 4.639671167834051 0.9362068965517242 4.63105047817888 0.9275862068965517 Q 4.615533236799569 0.9172413793103448 4.615533236799569 0.8931034482758621 L 4.615533236799569 0.33793103448275863 Q 4.615533236799569 0.31551724137931036 4.63105047817888 0.30086206896551726 Q 4.64656771955819 0.28620689655172415 4.6698435816271555 0.28620689655172415 Q 4.693119443696121 0.28620689655172415 4.706050478178879 0.30086206896551726 Q 4.718981512661638 0.31551724137931036 4.718981512661638 0.33793103448275863 L 4.718981512661638 0.39655172413793105 M 5.86038923592403 0.8689655172413793 Q 5.862113373855065 0.8793103448275862 5.862113373855065 0.8896551724137931 Q 5.862113373855065 0.9 5.856940960061961 0.9103448275862069 Q 5.851768546268858 0.9206896551724137 5.843147856613685 0.9258620689655173 Q 5.825906477303341 0.9413793103448276 5.805216822130927 0.9413793103448276 Q 5.763837511786099 0.9413793103448276 5.750044408337823 0.9051724137931034 L 5.665561649717134 0.6965517241379311 L 5.200044408337823 0.6965517241379311 L 5.117285787648168 0.9051724137931034 Q 5.105216822130926 0.9413793103448276 5.069009925579203 0.9413793103448276 Q 5.032803029027479 0.9413793103448276 5.013837511786099 0.9103448275862069 Q 5.008665097992996 0.9 5.008665097992996 0.8913793103448275 Q 5.008665097992996 0.8827586206896552 5.013837511786099 0.8689655172413793 L 5.325906477303341 0.10344827586206895 Q 5.36038923592403 0.017241379310344862 5.405216822130926 0.005172413793103403 Q 5.417285787648168 0.0034482758620689724 5.436251304889548 0 Q 5.470734063510237 0 5.487975442820582 0.01551724137931032 Q 5.515561649717133 0.036206896551724155 5.543147856613685 0.10344827586206895 L 5.86038923592403 0.8689655172413793 M 5.232803029027479 0.6051724137931034 L 5.634527166958513 0.6051724137931034 L 5.432803029027479 0.09827586206896555 L 5.232803029027479 0.6051724137931034 M 6.031088993467134 0.05689655172413799 Q 6.031088993467134 0.020689655172413834 6.065571752087823 0.005172413793103403 Q 6.07591657967403 0.0034482758620689724 6.094882096915409 0.0017241379310345417 Q 6.113847614156789 0 6.130226924501616 0.01379310344827589 Q 6.146606234846444 0.02758620689655178 6.146606234846444 0.05689655172413799 L 6.146606234846444 0.8844827586206896 Q 6.146606234846444 0.9258620689655173 6.1103993382947195 0.9379310344827586 Q 6.100054510708513 0.9413793103448276 6.082813131398168 0.9413793103448276 Q 6.065571752087823 0.9413793103448276 6.048330372777478 0.9275862068965517 Q 6.031088993467134 0.9137931034482758 6.031088993467134 0.8844827586206896 L 6.031088993467134 0.05689655172413799" fill="#ffffff" fill-rule="nonzero"></path></g><g></g></g><defs><clipPath id="SvgjsClipPath1002"><path d=" M 0.4207517004988772 -5.989563493533495 h 5.4395634935334956 v 5.4395634935334956 h -5.4395634935334956 Z"></path></clipPath><clipPath id="SvgjsClipPath1000f412c750-fbd6-47e8-b615-e1eaf1b3f38f"><path d=" M 1.100697137190564 -5.220082880184805 L 5.180369757340687 -5.220082880184805 L 5.180369757340687 -1.3194806133486905 L 1.100697137190564 -1.3194806133486905 Z"></path></clipPath></defs></svg>